<?xml version="1.0" encoding="UTF-8" standalone="no"?>
<svg
   width="755"
   height="1000.0001"
   viewBox="0 0 199.76041 264.58333"
   version="1.1"
   id="svg5"
   xmlns="http://www.w3.org/2000/svg"
   xmlns:svg="http://www.w3.org/2000/svg">
  <defs
     id="defs7" />
  <path
     style="fill:#880022"
     d="M 79.837767,5.1501139e-4 V 22.612571 H 165.81185 V 196.3968 l -17.47077,0.0134 V 69.746644 46.180641 h -11.30835 c -15.17963,0 -30.94371,6.149357 -46.308803,14.35623 -15.36511,8.206884 -30.07197,18.726139 -41.405743,29.081428 l -7.998478,7.309115 6.961332,8.303886 c 5.795571,6.91259 8.461077,12.6127 9.202539,16.32097 0.74145,3.70827 0.221321,5.27263 -1.280542,7.28276 -2.34039,3.13246 -10.072654,7.03477 -22.254455,8.64236 V 46.180641 H 11.334457 V 160.8956 H 22.64281 c 22.560698,1e-5 41.283965,-4.6177 51.674367,-18.52445 5.19519,-6.95337 7.12675,-16.32506 5.34179,-25.2522 -1.16977,-5.85034 -3.7745,-11.57636 -7.43572,-17.319877 8.616,-6.907059 18.88386,-13.82892 29.153263,-19.314066 8.54797,-4.565668 17.0335,-7.852943 24.35045,-9.784416 v 89.870489 35.90013 l -91.77838,0.24753 V 172.58533 H 11.334457 v 35.47018 l 11.336775,11.30836 103.055728,-0.27802 v 22.75675 l -45.920193,0.12609 0.062,22.61464 h 68.472303 v -45.55898 l 28.77912,-0.0134 11.30577,-11.30577 V 11.306801 L 177.1202,5.1501139e-4 Z"
     id="path2" />
</svg>
