<svg width="755" height="1000" viewBox="0 0 199.76 264.583" version="1.1" id="svg5" xmlns="http://www.w3.org/2000/svg"><path style="fill:#802" d="M79.838 0v22.613h85.974v173.784l-17.47.013V46.181h-11.31c-15.179 0-30.943 6.149-46.308 14.356-15.365 8.207-30.072 18.726-41.406 29.081l-7.998 7.31 6.961 8.303c5.796 6.913 8.461 12.613 9.203 16.321.741 3.709.22 5.273-1.281 7.283-2.34 3.132-10.073 7.035-22.254 8.642V46.181H11.334v114.715h11.309c22.56 0 41.284-4.618 51.674-18.525 5.195-6.953 7.127-16.325 5.342-25.252-1.17-5.85-3.775-11.576-7.436-17.32 8.616-6.907 18.884-13.829 29.154-19.314 8.547-4.566 17.033-7.853 24.35-9.784V196.47l-91.778.248v-24.134H11.334v35.47l11.337 11.309 103.056-.278v22.757l-45.92.126.062 22.614h68.472v-45.559l28.78-.013 11.305-11.306V11.307L177.12 0Z" id="path2"/></svg>